# xmcd
#
# Track frame offsets:
#	180
#	23022
#	43278
#	66539
#	82291
#	105134
#	123002
#	142196
#	158631
#	175365
#
# Disc length: 2567 seconds
#
# Revision: 2
# Processed by: cddbd v1.5.2PL0 Copyright (c) Steve Scherf et al.
# Submitted via: audiograbber 1.83.01
#
DISCID=870a050a
DTITLE=Ronnie - Chantry
DYEAR=1995
DGENRE=Country
TTITLE0=Chantry
TTITLE1=Lyin'
TTITLE2=I Belong to the World
TTITLE3=The Ballad of Wes Moon
TTITLE4=Orchid of Blue
TTITLE5=Roy
TTITLE6=Back to T.O.
TTITLE7=Have I Told You Lately That I love You
TTITLE8=Riverboat Fantasy
TTITLE9=Westering Home
EXTD=
EXTT0=
EXTT1=
EXTT2=
EXTT3=
EXTT4=
EXTT5=
EXTT6=
EXTT7=
EXTT8=
EXTT9=
PLAYORDER=
